<?xml version="1.0" encoding="UTF-8"?>
<svg width="250px" height="122px" viewBox="0 0 250 122" version="1.1" xmlns="http://www.w3.org/2000/svg" xmlns:xlink="http://www.w3.org/1999/xlink">
    <!-- Generator: Sketch 63.1 (92452) - https://sketch.com -->
    <title>服务器错误</title>
    <desc>Created with Sketch.</desc>
    <defs>
        <linearGradient x1="50%" y1="0%" x2="50%" y2="100%" id="linearGradient-1">
            <stop stop-color="#C1DBFE" offset="0%"></stop>
            <stop stop-color="#FFFFFF" offset="100%"></stop>
        </linearGradient>
        <linearGradient x1="50%" y1="0%" x2="50%" y2="100%" id="linearGradient-2">
            <stop stop-color="#9CB8F4" stop-opacity="0.449792395" offset="0%"></stop>
            <stop stop-color="#DFEBFD" stop-opacity="0" offset="100%"></stop>
        </linearGradient>
        <linearGradient x1="50%" y1="0%" x2="14.5197296%" y2="94.4977398%" id="linearGradient-3">
            <stop stop-color="#A3BCFF" offset="0%"></stop>
            <stop stop-color="#7CAAF2" offset="100%"></stop>
        </linearGradient>
        <circle id="path-4" cx="126.5" cy="69.5" r="39.5"></circle>
        <filter x="-3.2%" y="-5.7%" width="112.7%" height="108.9%" filterUnits="objectBoundingBox" id="filter-5">
            <feOffset dx="5" dy="-2" in="SourceAlpha" result="shadowOffsetOuter1"></feOffset>
            <feColorMatrix values="0 0 0 0 0.431372549   0 0 0 0 0.588235294   0 0 0 0 0.937254902  0 0 0 1 0" type="matrix" in="shadowOffsetOuter1"></feColorMatrix>
        </filter>
        <polygon id="path-6" points="121 46 132.571585 46 130.905056 78.6754584 122.216282 78.6754584"></polygon>
        <filter x="-8.6%" y="-9.2%" width="134.6%" height="112.2%" filterUnits="objectBoundingBox" id="filter-7">
            <feOffset dx="2" dy="-2" in="SourceAlpha" result="shadowOffsetOuter1"></feOffset>
            <feColorMatrix values="0 0 0 0 0.356862745   0 0 0 0 0.466666667   0 0 0 0 0.796078431  0 0 0 1 0" type="matrix" in="shadowOffsetOuter1"></feColorMatrix>
        </filter>
        <circle id="path-8" cx="126.58848" cy="87.4925062" r="5.5"></circle>
        <filter x="-9.1%" y="-27.3%" width="136.4%" height="136.4%" filterUnits="objectBoundingBox" id="filter-9">
            <feOffset dx="2" dy="-2" in="SourceAlpha" result="shadowOffsetOuter1"></feOffset>
            <feColorMatrix values="0 0 0 0 0.356862745   0 0 0 0 0.466666667   0 0 0 0 0.796078431  0 0 0 1 0" type="matrix" in="shadowOffsetOuter1"></feColorMatrix>
        </filter>
    </defs>
    <g id="2.0" stroke="none" stroke-width="1" fill="none" fill-rule="evenodd">
        <g id="空页面" transform="translate(-58.000000, -73.000000)">
            <g id="服务器错误" transform="translate(55.000000, 45.000000)">
                <rect id="矩形备份-2" x="0" y="0" width="253" height="150"></rect>
                <path d="M252.519132,150 C223.098435,113.493778 176.035575,92 125.5,92 C76.5259785,92 32.6750875,113.93473 3.23563716,148.515879 C3.23563716,148.515879 252.519132,150 252.519132,150 Z" id="椭圆形" fill="url(#linearGradient-1)"></path>
                <g id="3.通用组件/彩色版/盆栽03备份-4" transform="translate(61.000000, 92.000000)">
                    <g id="分组">
                        <g transform="translate(3.760000, 0.000000)" fill="#BAE637" id="Fill-1">
                            <path d="M2.99249766,11.598643 L0.00120155844,11.598643 L0.00120155844,1.47662267 C0.00120155844,0.670954584 0.667318442,0.0178204584 1.48903013,0.0178204584 L1.50464571,0.0178204584 C2.3263574,0.0178204584 2.99249766,0.670954584 2.99249766,1.47662267 L2.99249766,11.598643 Z"></path>
                        </g>
                        <path d="M8.24,14.0762463 L5.24,14.0762463 L5.24,8.79073969 C5.24,8.00634764 5.89142187,7.37047898 6.695,7.37047898 L6.78502344,7.37047898 C7.58857812,7.37047898 8.24,8.00634764 8.24,8.79073969 L8.24,14.0762463 Z" id="Fill-3" fill="#389E0D"></path>
                        <path d="M4.2,11.5933529 L1.18,11.5933529 L1.18,5.84669955 C1.18,5.05786952 1.83312921,4.41837732 2.63878083,4.41837732 L2.74121917,4.41837732 C3.54687079,4.41837732 4.2,5.05786952 4.2,5.84669955 L4.2,11.5933529 Z" id="Fill-5" fill="#7CB305"></path>
                        <g transform="translate(0.000000, 11.241447)" fill="#3B68B8" id="Fill-7">
                            <path d="M8.41844772,8.74710648 L0.562255965,8.74710648 C0.251726681,8.74710648 0,8.50106555 0,8.19755019 L0,0.564717168 C0,0.261201812 0.251726681,0.015160884 0.562255965,0.015160884 L8.41844772,0.015160884 C8.72897701,0.015160884 8.98070369,0.261201812 8.98070369,0.564717168 L8.98070369,8.19755019 C8.98070369,8.50106555 8.72897701,8.74710648 8.41844772,8.74710648"></path>
                        </g>
                    </g>
                </g>
                <g id="3.通用组件/彩色版/盆栽03备份-5" transform="translate(198.000000, 95.000000)">
                    <g id="分组" transform="translate(0.848485, 0.000000)">
                        <g transform="translate(3.525000, 0.000000)" fill="#BAE637" id="Fill-1">
                            <path d="M2.80546656,10.8949656 L0.00112646104,10.8949656 L0.00112646104,1.38703753 C0.00112646104,0.630248477 0.625611039,0.01673931 1.39596575,0.01673931 L1.41060536,0.01673931 C2.18096006,0.01673931 2.80546656,0.630248477 2.80546656,1.38703753 L2.80546656,10.8949656 Z"></path>
                        </g>
                        <path d="M7.725,13.2222553 L4.9125,13.2222553 L4.9125,8.25741479 C4.9125,7.52061097 5.52320801,6.9233198 6.2765625,6.9233198 L6.36095947,6.9233198 C7.11429199,6.9233198 7.725,7.52061097 7.725,8.25741479 L7.725,13.2222553 Z" id="Fill-3" fill="#389E0D"></path>
                        <path d="M3.9375,10.8899964 L1.10625,10.8899964 L1.10625,5.49198646 C1.10625,4.75101391 1.71855863,4.15031903 2.47385703,4.15031903 L2.56989297,4.15031903 C3.32519137,4.15031903 3.9375,4.75101391 3.9375,5.49198646 L3.9375,10.8899964 Z" id="Fill-5" fill="#7CB305"></path>
                        <g transform="translate(0.000000, 10.559440)" fill="#3B68B8" id="Fill-7">
                            <path d="M7.89229474,8.21642875 L0.527114967,8.21642875 C0.235993764,8.21642875 0,7.98531487 0,7.70021347 L0,0.530456373 C0,0.245354973 0.235993764,0.0142410891 0.527114967,0.0142410891 L7.89229474,0.0142410891 C8.18341594,0.0142410891 8.41940971,0.245354973 8.41940971,0.530456373 L8.41940971,7.70021347 C8.41940971,7.98531487 8.18341594,8.21642875 7.89229474,8.21642875"></path>
                        </g>
                    </g>
                </g>
                <g id="3.通用组件/彩色版/盆栽03备份-6" transform="translate(168.000000, 105.000000)">
                    <g id="分组">
                        <g transform="translate(5.091667, 0.000000)" fill="#BAE637" id="Fill-1">
                            <path d="M4.05234058,14.7082036 L0.00162711039,14.7082036 L0.00162711039,1.87250066 C0.00162711039,0.850835444 0.90366039,0.0225980685 2.01639497,0.0225980685 L2.03754107,0.0225980685 C3.15027565,0.0225980685 4.05234058,0.850835444 4.05234058,1.87250066 L4.05234058,14.7082036 Z"></path>
                        </g>
                        <path d="M11.1583333,17.8500447 L7.09583333,17.8500447 L7.09583333,11.14751 C7.09583333,10.1528248 7.97796712,9.34648173 9.06614583,9.34648173 L9.18805257,9.34648173 C10.2761995,9.34648173 11.1583333,10.1528248 11.1583333,11.14751 L11.1583333,17.8500447 Z" id="Fill-3" fill="#389E0D"></path>
                        <path d="M5.6875,14.7014951 L1.59791667,14.7014951 L1.59791667,7.41418172 C1.59791667,6.41386878 2.48236247,5.60293069 3.57334905,5.60293069 L3.71206762,5.60293069 C4.8030542,5.60293069 5.6875,6.41386878 5.6875,7.41418172 L5.6875,14.7014951 Z" id="Fill-5" fill="#7CB305"></path>
                        <g transform="translate(0.000000, 14.255244)" fill="#3B68B8" id="Fill-7">
                            <path d="M11.3999813,11.0921788 L0.761388286,11.0921788 C0.340879881,11.0921788 0,10.7801751 0,10.3952882 L0,0.716116103 C0,0.331229214 0.340879881,0.0192254703 0.761388286,0.0192254703 L11.3999813,0.0192254703 C11.8204897,0.0192254703 12.1613696,0.331229214 12.1613696,0.716116103 L12.1613696,10.3952882 C12.1613696,10.7801751 11.8204897,11.0921788 11.3999813,11.0921788"></path>
                        </g>
                    </g>
                </g>
                <polygon id="路径-46" fill="url(#linearGradient-2)" points="103.375 101.775869 93.4320579 127.874426 162.244694 127.874426 149.833099 101.775869"></polygon>
                <g id="椭圆形">
                    <use fill="black" fill-opacity="1" filter="url(#filter-5)" xlink:href="#path-4"></use>
                    <use fill="url(#linearGradient-3)" fill-rule="evenodd" xlink:href="#path-4"></use>
                </g>
                <g id="路径-45">
                    <use fill="black" fill-opacity="1" filter="url(#filter-7)" xlink:href="#path-6"></use>
                    <use fill="#FFFFFF" fill-rule="evenodd" xlink:href="#path-6"></use>
                </g>
                <g id="椭圆形">
                    <use fill="black" fill-opacity="1" filter="url(#filter-9)" xlink:href="#path-8"></use>
                    <use fill="#FFFFFF" fill-rule="evenodd" xlink:href="#path-8"></use>
                </g>
            </g>
        </g>
    </g>
</svg>