<svg xmlns="http://www.w3.org/2000/svg" fill="none" viewBox="0 0 1024 1024" height="1024" width="1024">
<g clip-path="url(#clip0_1519_111664)">
<ellipse fill="url(#paint0_linear_1519_111664)" ry="127.5" rx="467" cy="762.5" cx="506"></ellipse>
<path fill="url(#paint1_linear_1519_111664)" d="M230.457 615.502C230.457 615.502 230.233 614.922 229.928 615.542C227.184 621.122 202.334 681.566 200.362 728.218C200.362 728.218 196.215 755.02 230.965 754.665C259.973 754.37 259.2 729.662 259.099 721.337C258.702 687.573 230.457 615.502 230.457 615.502Z"></path>
<path fill="url(#paint2_linear_1519_111664)" d="M229.664 784.343C229.105 784.343 228.647 783.886 228.647 783.327V631.754C228.647 631.195 229.105 630.737 229.664 630.737C230.223 630.737 230.68 631.195 230.68 631.754V783.327C230.68 783.896 230.223 784.343 229.664 784.343Z"></path>
<path fill="url(#paint3_linear_1519_111664)" d="M869.35 810.661C876.541 808.4 883.517 805.446 889.874 797.176C891.178 795.482 892.404 793.311 891.689 791.283C891.151 789.757 889.594 788.778 888.013 788.529C887.424 788.442 886.827 788.426 886.234 788.48H886.228C885.316 788.574 884.415 788.754 883.536 789.015L883.285 789.089C879.09 790.299 875.093 792.13 871.425 794.524C871.093 794.738 870.698 794.833 870.306 794.792C869.914 794.75 869.548 794.576 869.266 794.296C868.984 794.017 868.804 793.649 868.754 793.252C868.704 792.855 868.789 792.453 868.993 792.111C869.367 791.491 869.803 790.911 870.292 790.38C871.015 789.613 871.807 788.916 872.657 788.299C873.788 787.462 874.994 786.715 876.174 785.951C880.562 783.116 884.719 779.929 888.605 776.42C891.378 773.913 894.091 771.131 895.409 767.607C896.015 765.986 896.291 764.117 895.568 762.547C894.376 759.968 890.999 759.245 888.237 759.78C883.398 760.721 879.532 764.32 876.104 767.908C873.261 770.889 870.075 774.189 865.99 774.372C865.294 774.439 864.594 774.296 863.977 773.963C862.812 773.247 862.512 771.588 862.927 770.271C863.343 768.953 864.304 767.901 865.231 766.89C870.623 761.021 875.928 754.916 879.429 747.725C882.93 740.534 884.481 732.044 882.048 724.409C881.335 722.177 880.263 720.005 878.591 718.383C876.919 716.762 874.575 715.745 872.28 716.056C869.153 716.473 866.798 719.15 865.213 721.915C859.768 731.401 860.101 743.025 858.567 753.891C858.138 756.933 857.514 760.053 855.728 762.557C855.563 762.798 855.35 763 855.101 763.15C853.632 764.013 852.313 762.272 851.761 760.795C849.583 754.95 849.038 748.265 845.139 743.427C843.65 741.585 841.544 740.046 839.197 740.061C836.331 740.081 833.877 742.51 833.04 745.292C832.204 748.074 832.705 751.096 833.601 753.858C835.264 758.98 838.245 763.582 841.759 767.627C843.61 769.763 845.705 771.92 846.261 774.706C846.431 775.653 846.36 776.628 846.054 777.539C845.748 778.45 845.218 779.267 844.513 779.912C844.184 780.202 843.801 780.423 843.386 780.561C842.971 780.699 842.533 780.75 842.098 780.713C841.157 780.626 840.306 780.139 839.484 779.666C839.139 779.467 838.794 779.265 838.447 779.067C837.077 778.276 835.707 777.483 834.336 776.69C830.851 774.674 826.646 772.614 823.018 774.35C821.167 775.238 819.954 776.983 819.383 778.986C818.872 780.804 818.872 782.73 819.383 784.548C820.464 788.328 827.276 798.848 830.086 801.561C833.368 804.729 844.748 818.398 869.35 810.661Z"></path>
<path fill="url(#paint4_linear_1519_111664)" d="M506.295 313.717C517.955 294.341 546.045 294.341 557.705 313.717L760.983 651.532C773.015 671.527 758.614 697 735.278 697H328.721C305.385 697 290.985 671.527 303.017 651.532L506.295 313.717Z"></path>
<path fill="url(#paint5_linear_1519_111664)" d="M506.295 320.717C517.955 301.341 546.045 301.341 557.705 320.717L760.983 658.532C773.015 678.527 758.614 704 735.278 704H328.721C305.385 704 290.985 678.527 303.017 658.532L506.295 320.717Z"></path>
<path fill="url(#paint6_linear_1519_111664)" d="M514.679 387C522.378 373.667 541.623 373.667 549.321 387L690.483 631.5C698.181 644.833 688.558 661.5 673.162 661.5H390.838C375.442 661.5 365.819 644.833 373.517 631.5L514.679 387Z"></path>
<path fill="url(#paint7_linear_1519_111664)" d="M514.679 381C522.378 367.667 541.623 367.667 549.321 381L690.483 625.5C698.181 638.833 688.558 655.5 673.162 655.5H390.838C375.442 655.5 365.819 638.833 373.517 625.5L514.679 381Z"></path>
<path fill="url(#paint8_linear_1519_111664)" d="M517 474C517 465.716 523.716 459 532 459C540.284 459 547 465.716 547 474V560C547 568.284 540.284 575 532 575C523.716 575 517 568.284 517 560V474Z"></path>
<path fill="url(#paint9_linear_1519_111664)" d="M547 597.5C547 606.06 540.06 613 531.5 613C522.94 613 516 606.06 516 597.5C516 588.94 522.94 582 531.5 582C540.06 582 547 588.94 547 597.5Z"></path>
<path fill="url(#paint10_linear_1519_111664)" d="M385.44 298.103C385.363 297.967 385.297 297.856 385.243 297.795L385.217 297.731L385.111 297.571C383.391 295.075 380.837 294.079 378.589 295.033L378.218 295.191C374.384 296.818 369.948 295.008 368.325 291.184C367.95 290.299 367.827 288.868 367.813 288.352C367.822 285.346 365.431 282.938 362.114 282.602L351.615 281.398L351.434 281.41C350.715 281.472 349.878 281.539 349.057 281.887C347.527 282.536 346.109 283.977 345.497 285.496C344.724 287.381 342.853 290.497 341.244 291.18C339.643 291.859 336.098 291.051 334.201 290.29C332.589 289.65 330.741 289.66 329.132 290.343C328.288 290.701 327.678 291.24 327.138 291.721L327.019 291.836L320.187 300.414L320.146 300.469C318.565 302.734 319.004 306.203 321.144 308.195L321.173 308.22L321.202 308.245C321.54 308.559 322.633 309.643 323.119 310.788C324.749 314.628 322.946 319.067 319.128 320.687L318.758 320.845C316.407 321.842 315.386 324.327 316.064 327.331L316.1 327.502L316.123 327.557C316.157 327.636 316.172 327.76 316.209 327.913C316.518 329.189 317.239 332.203 318.214 334.503C319.19 336.802 320.849 339.417 321.561 340.523C321.637 340.659 321.703 340.771 321.757 340.832L321.784 340.895L321.889 341.055C323.609 343.551 326.163 344.547 328.412 343.593L328.601 343.512C332.435 341.885 336.87 343.695 338.493 347.52C338.869 348.405 338.992 349.835 339.006 350.351C338.973 353.19 341.271 355.842 344.248 356.407L344.324 356.411L354.664 357.525L354.845 357.513C355.564 357.451 356.385 357.391 357.206 357.043C358.957 356.3 360.25 354.958 360.766 353.434C360.831 353.323 360.885 353.188 360.955 353.046C361.589 351.732 363.31 348.242 365.101 347.482C366.434 346.916 369.26 347.368 372.464 348.665C374.076 349.305 375.924 349.295 377.533 348.612C378.622 348.15 379.299 347.508 380.023 346.67L380.048 346.64L386.607 338.253L386.625 338.208C388.205 335.943 387.766 332.474 385.627 330.482L385.598 330.457L385.569 330.432C385.549 330.431 384.285 329.317 383.878 328.007L383.861 327.921L383.827 327.842C382.197 324.002 384 319.563 387.818 317.943L388.212 317.776C390.563 316.778 391.584 314.293 390.906 311.29L390.87 311.118L390.847 311.063C390.835 310.993 390.811 310.892 390.781 310.755C390.493 309.507 389.816 306.596 388.763 304.115C387.807 301.817 386.151 299.209 385.44 298.103V298.103ZM358.189 330.405C352.123 332.98 345.12 330.143 342.541 324.067C339.962 317.991 342.788 310.982 348.854 308.408C354.92 305.834 361.923 308.671 364.502 314.747C367.08 320.823 364.255 327.831 358.189 330.405V330.405Z"></path>
<path fill="url(#paint11_linear_1519_111664)" d="M734.806 448.932C734.915 448.842 735.017 448.744 735.109 448.633L754.064 427.474C756.712 428.177 759.527 428.476 762.421 428.301C762.574 428.291 762.726 428.282 762.879 428.265C762.94 428.261 763.001 428.265 763.062 428.262C763.116 428.258 763.177 428.255 763.23 428.244L763.23 428.251C777.207 426.979 787.742 414.946 786.896 400.996L786.896 400.988L786.895 400.981C786.651 396.957 785.481 393.21 783.611 389.914L783.603 389.914C783.603 389.907 783.595 389.9 783.594 389.892L783.572 389.908C783.409 389.623 783.194 389.356 782.927 389.122C781.632 387.988 779.655 388.108 778.506 389.39L767.288 401.912L761.332 396.697L772.731 383.997C773.879 382.715 773.76 380.76 772.466 379.627C772.223 379.414 771.952 379.241 771.661 379.115L771.675 379.091C767.924 377.402 763.705 376.567 759.3 376.834C744.923 377.706 733.964 389.94 734.826 404.154C735.058 407.981 736.125 411.56 737.835 414.737L720.108 434.526L720.1 434.519C719.847 434.777 719.611 435.049 719.391 435.335L719.089 435.671C718.802 435.992 718.587 436.361 718.457 436.748C717.567 438.37 717.114 440.254 717.234 442.231C717.577 447.878 722.489 452.179 728.2 451.832C730.78 451.676 733.083 450.597 734.806 448.932V448.932Z"></path>
<ellipse fill-opacity="0.15" fill="#7D7D7D" ry="15.5" rx="56.5" cy="729.5" cx="702.5"></ellipse>
<path fill="url(#paint12_linear_1519_111664)" d="M712.234 574.048L735.712 575.579L734.157 599.422L710.679 597.891L712.234 574.048Z"></path>
<path fill="url(#paint13_linear_1519_111664)" d="M716.285 581.855C703.501 579.527 695.316 565.68 698.003 550.927C700.69 536.174 713.231 526.102 726.015 528.43C738.799 530.758 746.984 544.605 744.297 559.358C741.61 574.111 729.069 584.184 716.285 581.855Z"></path>
<path fill="url(#paint14_linear_1519_111664)" d="M756.31 517.268C751.982 516.48 747.768 518.18 745.101 521.361C737.826 517.273 727.319 514.686 714.126 520.44C712.106 521.525 710.251 522.755 708.665 524.167C700.456 530.144 698.677 542.287 699.583 543.699C700.001 544.351 702.025 545.109 704.966 546.21C709.904 548.06 717.427 550.878 724.273 555.788C725.873 557.043 727.313 558.182 728.484 559.185L728.484 559.185C728.485 559.186 728.486 559.186 728.486 559.187C728.487 559.185 728.488 559.183 728.489 559.181L728.502 559.172L728.522 559.157C728.611 559.252 728.698 559.347 728.783 559.442C728.967 559.313 729.189 559.143 729.442 558.95C731.86 557.107 737.184 553.048 740.528 559.866C742.286 568.762 734.385 572.248 731.501 570.73C731.961 574.36 735.695 576.308 735.695 576.308C735.676 576.293 735.717 576.304 735.815 576.33C736.626 576.547 741.312 577.797 747.519 573.745C755.841 567.935 762.729 560.416 760.361 539.389C763.133 537.649 765.2 534.773 765.838 531.27C767.032 524.713 762.766 518.444 756.31 517.268Z" clip-rule="evenodd" fill-rule="evenodd"></path>
<rect fill="#FEE4C3" transform="matrix(-0.997157 -0.0753565 -0.0753565 0.997157 671.397 741.164)" height="13.293" width="9.96976"></rect>
<path fill="#4F538F" d="M647.253 759.135C647.734 763.698 653.287 763.512 660.588 762.742C667.889 761.972 675.691 761.149 676.821 756.017C676.768 756.242 678.125 752.538 672.645 748.103C672.645 748.103 668.037 751.931 661.078 749.323C654.763 751.272 646.894 755.736 647.253 759.135Z"></path>
<rect fill="#FEE4C3" transform="matrix(-0.997483 -0.0709073 -0.0709073 0.997483 650.972 729.739)" height="13.293" width="9.96976"></rect>
<path fill="#4F538F" d="M625.16 749.411C625.701 753.967 631.251 753.707 638.541 752.841C645.832 751.974 653.623 751.049 654.685 745.903C654.635 746.128 655.943 742.406 650.404 738.045C650.404 738.045 645.847 741.933 638.854 739.417C632.566 741.449 624.757 746.017 625.16 749.411Z"></path>
<path fill="url(#paint15_linear_1519_111664)" d="M711.042 587.088C711.042 587.088 699.008 589.434 692.964 596.439C683.004 607.987 674.876 629.188 674.876 629.188C674.876 629.188 673.408 635.803 666.677 644.425C659.354 653.803 657.109 654.757 657.109 654.757C657.109 654.757 667.293 660.524 665.038 660.625C662.286 660.75 650.597 668.375 650.597 668.375L680.008 678.413C680.008 678.413 656.343 675.546 669.512 672.119C679.348 669.557 684.727 659.317 684.727 659.317L711.042 587.088Z" clip-rule="evenodd" fill-rule="evenodd"></path>
<path fill="url(#paint16_linear_1519_111664)" d="M710.883 585.605C718.424 597.55 729.528 591.903 734.138 587.586C734.686 587.672 738.436 590.211 742.699 597.338C749.358 608.471 755.496 659.317 747.667 697.499C722.135 695.72 660.038 698.618 663.702 692.472C668.282 684.789 680.115 631.185 684.348 615.044C686.033 608.619 696.965 588.457 710.883 585.605Z"></path>
<path fill="#D1E2FF" d="M745.633 697.147C745.633 697.147 741.084 727.435 727.085 729.995C727.085 729.995 703.32 737.211 688.318 705.147L675.503 743.077C675.309 743.649 674.952 744.135 674.483 744.464C674.015 744.794 673.459 744.951 672.896 744.912C672.217 744.862 671.38 744.79 670.445 744.669C668.042 744.384 665.663 743.869 663.335 743.13C660.849 742.391 658.506 741.138 656.437 739.439C655.886 738.963 655.377 738.431 654.917 737.85C654.917 737.85 654.26 737.667 653.193 737.338C652.443 737.098 651.461 736.801 650.378 736.453C648.219 735.749 645.632 734.863 643.377 733.963C641.526 733.383 639.781 732.44 638.23 731.18C636.352 728.801 627.79 631.677 656.461 625.603C656.461 625.603 663.337 624.772 669.316 634.909C669.394 635.039 669.476 635.176 669.555 635.314C669.919 635.264 670.279 635.191 670.635 635.096C672.206 634.68 674.152 633.883 674.152 633.883C674.152 633.883 684.762 623.045 693.466 635.892C702.171 648.739 712.723 691.558 714.702 694.792L745.633 697.147Z"></path>
<path fill="#C7DCFF" d="M673.139 634.209C672.159 640.621 658.204 731.454 656.526 739.471C655.929 738.997 655.379 738.467 654.884 737.887C654.884 737.887 654.168 737.709 653.007 737.389L671.378 635.089L673.139 634.209Z"></path>
<path fill="#5B7EFB" d="M707.239 586.816C707.239 586.816 709.139 585.433 710.78 585.692C718.227 595.928 729.21 591.363 734.018 587.675C734.199 587.53 735.659 587.933 737.042 589.833C720.527 600.686 710.292 592.344 707.239 586.816Z"></path>
<path fill="url(#paint17_linear_1519_111664)" d="M664.519 655.087C662.835 658.403 659.204 657.2 653.615 655.013C648.026 652.826 642.493 649.628 644.064 645.615C645.634 641.602 652.373 640.128 657.962 642.315C671.27 640.177 676.162 653.506 664.519 655.087Z"></path>
<path fill="url(#paint18_linear_1519_111664)" d="M705.896 585.601C694.736 575.98 668.452 594.032 653.062 603.741C645.117 608.753 616.613 632.568 623.827 642.134C629.598 649.787 637.739 653.053 652.005 654.286L658.697 642.134C650.425 635.413 650.459 637.919 645.636 634.115C646.514 633.406 649.19 627.064 656.76 625.579C665.038 626.108 717.52 597.225 705.896 585.601Z"></path>
<path fill="url(#paint19_linear_1519_111664)" d="M668.534 647.464C670.114 644.098 673.781 645.187 679.435 647.199C685.089 649.212 690.718 652.236 689.273 656.296C687.828 660.355 681.139 662.038 675.484 660.026C662.249 662.576 656.945 649.406 668.534 647.464Z"></path>
<path fill="url(#paint20_linear_1519_111664)" d="M755.446 611.727C755.446 593.768 741.569 591.824 737.069 590.18C734.956 590.708 732.913 592.294 731.257 594.407C722.39 605.722 712.345 638.235 707.065 648.363C700.665 646.62 687.73 646.775 677.265 646.82L672.962 661.763C685.071 664.037 703.47 668.225 713.052 668.44C725.03 668.709 755.446 621.12 755.446 611.727Z"></path>
</g>
<defs>
<linearGradient gradientUnits="userSpaceOnUse" y2="890" x2="506" y1="635" x1="506" id="paint0_linear_1519_111664">
<stop stop-color="#BDDFFF"></stop>
<stop stop-opacity="0" stop-color="white" offset="0.95892"></stop>
</linearGradient>
<linearGradient gradientUnits="userSpaceOnUse" y2="615.257" x2="229.66" y1="754.678" x1="229.66" id="paint1_linear_1519_111664">
<stop stop-color="#5FB2FF"></stop>
<stop stop-color="#DFF0FF" offset="0.7893"></stop>
</linearGradient>
<linearGradient gradientUnits="userSpaceOnUse" y2="784.347" x2="229.661" y1="630.738" x1="229.661" id="paint2_linear_1519_111664">
<stop stop-color="#DFF0FF"></stop>
<stop stop-color="#A2D2FF" offset="0.818"></stop>
</linearGradient>
<linearGradient gradientUnits="userSpaceOnUse" y2="802.968" x2="847.534" y1="720.042" x1="883.842" id="paint3_linear_1519_111664">
<stop stop-color="#C4E3FF" offset="0.365159"></stop>
<stop stop-color="#5FB2FF" offset="1"></stop>
</linearGradient>
<linearGradient gradientUnits="userSpaceOnUse" y2="489.602" x2="463.947" y1="271" x1="506" id="paint4_linear_1519_111664">
<stop stop-color="#A9D5FF"></stop>
<stop stop-color="#CFE8FF" offset="1"></stop>
</linearGradient>
<linearGradient gradientUnits="userSpaceOnUse" y2="687.831" x2="308.932" y1="300" x1="570" id="paint5_linear_1519_111664">
<stop stop-color="#D3EAFF"></stop>
<stop stop-color="#B9DDFF" offset="0.927669"></stop>
</linearGradient>
<linearGradient gradientUnits="userSpaceOnUse" y2="624.555" x2="373.587" y1="377.745" x1="621.549" id="paint6_linear_1519_111664">
<stop stop-color="#F1F8FF"></stop>
<stop stop-color="#E5F2FF" offset="0.656831"></stop>
</linearGradient>
<linearGradient gradientUnits="userSpaceOnUse" y2="618.555" x2="373.587" y1="371.745" x1="621.549" id="paint7_linear_1519_111664">
<stop stop-color="#74BCFF"></stop>
<stop stop-color="#B2DAFF" offset="1"></stop>
</linearGradient>
<linearGradient gradientUnits="userSpaceOnUse" y2="613" x2="531.5" y1="489" x1="547" id="paint8_linear_1519_111664">
<stop stop-color="#DFEFFF"></stop>
<stop stop-color="#FAFCFF" offset="1"></stop>
</linearGradient>
<linearGradient gradientUnits="userSpaceOnUse" y2="613" x2="531.5" y1="489" x1="547" id="paint9_linear_1519_111664">
<stop stop-color="#DFEFFF"></stop>
<stop stop-color="#FAFCFF" offset="1"></stop>
</linearGradient>
<linearGradient gradientUnits="userSpaceOnUse" y2="351.351" x2="350.633" y1="282.798" x1="356.4" id="paint10_linear_1519_111664">
<stop stop-color="#6CB8FF"></stop>
<stop stop-color="#8FC8FF" offset="0.656831"></stop>
</linearGradient>
<linearGradient gradientUnits="userSpaceOnUse" y2="398.97" x2="723.746" y1="427.967" x1="784.845" id="paint11_linear_1519_111664">
<stop stop-color="#6CB8FF"></stop>
<stop stop-color="#8FC8FF" offset="0.656831"></stop>
</linearGradient>
<linearGradient gradientUnits="userSpaceOnUse" y2="598.657" x2="722.418" y1="577.895" x1="723.772" id="paint12_linear_1519_111664">
<stop stop-color="#FFCDA5"></stop>
<stop stop-color="#FFE8D1" offset="1"></stop>
</linearGradient>
<linearGradient gradientUnits="userSpaceOnUse" y2="574.615" x2="693.361" y1="529.078" x1="729.573" id="paint13_linear_1519_111664">
<stop stop-color="#FFF2DF"></stop>
<stop stop-color="#FEE0BC" offset="1"></stop>
</linearGradient>
<linearGradient gradientUnits="userSpaceOnUse" y2="570.773" x2="752.113" y1="528.549" x1="713.56" id="paint14_linear_1519_111664">
<stop stop-color="#9F4326"></stop>
<stop stop-color="#574915" offset="1"></stop>
</linearGradient>
<linearGradient gradientUnits="userSpaceOnUse" y2="586.252" x2="695.402" y1="689.802" x1="713.965" id="paint15_linear_1519_111664">
<stop stop-color="#6688FF" offset="0.0403741"></stop>
<stop stop-color="#F094FF" offset="1"></stop>
</linearGradient>
<linearGradient gradientUnits="userSpaceOnUse" y2="586.252" x2="695.402" y1="689.802" x1="713.965" id="paint16_linear_1519_111664">
<stop stop-color="#6688FF" offset="0.0403741"></stop>
<stop stop-color="#F094FF" offset="1"></stop>
</linearGradient>
<linearGradient gradientUnits="userSpaceOnUse" y2="655.425" x2="654.667" y1="640.871" x1="660.363" id="paint17_linear_1519_111664">
<stop stop-color="#FEE4C3"></stop>
<stop stop-color="#FFD1AC" offset="1"></stop>
</linearGradient>
<linearGradient gradientUnits="userSpaceOnUse" y2="568.75" x2="675.157" y1="646.005" x1="635.692" id="paint18_linear_1519_111664">
<stop stop-color="#6688FF" offset="0.0403741"></stop>
<stop stop-color="#E193FF" offset="0.780206"></stop>
</linearGradient>
<linearGradient gradientUnits="userSpaceOnUse" y2="646.82" x2="678.37" y1="661.544" x1="673.129" id="paint19_linear_1519_111664">
<stop stop-color="#FEE4C3"></stop>
<stop stop-color="#FFD1AC" offset="1"></stop>
</linearGradient>
<linearGradient gradientUnits="userSpaceOnUse" y2="602.737" x2="715.346" y1="661.762" x1="707.005" id="paint20_linear_1519_111664">
<stop stop-color="#6688FF" offset="0.0403741"></stop>
<stop stop-color="#DA92FF" offset="1"></stop>
</linearGradient>
<clipPath id="clip0_1519_111664">
<rect fill="white" height="1024" width="1024"></rect>
</clipPath>
</defs>
</svg>
