<svg xmlns="http://www.w3.org/2000/svg" fill="none" viewBox="0 0 1024 1024" height="1024" width="1024">
<g clip-path="url(#clip0_1517_111459)">
<ellipse fill="url(#paint0_linear_1517_111459)" ry="127.5" rx="467" cy="762.5" cx="506"></ellipse>
<path fill="url(#paint1_linear_1517_111459)" d="M230.457 615.502C230.457 615.502 230.233 614.922 229.928 615.542C227.184 621.122 202.334 681.566 200.362 728.218C200.362 728.218 196.215 755.02 230.965 754.665C259.973 754.37 259.2 729.662 259.099 721.337C258.702 687.573 230.457 615.502 230.457 615.502Z"></path>
<path fill="url(#paint2_linear_1517_111459)" d="M229.664 784.343C229.105 784.343 228.647 783.886 228.647 783.327V631.754C228.647 631.195 229.105 630.737 229.664 630.737C230.223 630.737 230.68 631.195 230.68 631.754V783.327C230.68 783.896 230.223 784.343 229.664 784.343Z"></path>
<path fill="url(#paint3_linear_1517_111459)" d="M869.35 810.661C876.541 808.4 883.517 805.446 889.874 797.176C891.178 795.482 892.404 793.311 891.689 791.283C891.151 789.757 889.594 788.778 888.013 788.529C887.424 788.442 886.827 788.426 886.234 788.48H886.228C885.316 788.574 884.415 788.754 883.536 789.015L883.285 789.089C879.09 790.299 875.093 792.13 871.425 794.524C871.093 794.738 870.698 794.833 870.306 794.792C869.914 794.75 869.548 794.576 869.266 794.296C868.984 794.017 868.804 793.649 868.754 793.252C868.704 792.855 868.789 792.453 868.993 792.111C869.367 791.491 869.803 790.911 870.292 790.38C871.015 789.613 871.807 788.916 872.657 788.299C873.788 787.462 874.994 786.715 876.174 785.951C880.562 783.116 884.719 779.929 888.605 776.42C891.378 773.913 894.091 771.131 895.409 767.607C896.015 765.986 896.291 764.117 895.568 762.547C894.376 759.968 890.999 759.245 888.237 759.78C883.398 760.721 879.532 764.32 876.104 767.908C873.261 770.889 870.075 774.189 865.99 774.372C865.294 774.439 864.594 774.296 863.977 773.963C862.812 773.247 862.512 771.588 862.927 770.271C863.343 768.953 864.304 767.901 865.231 766.89C870.623 761.021 875.928 754.916 879.429 747.725C882.93 740.534 884.481 732.044 882.048 724.409C881.335 722.177 880.263 720.005 878.591 718.383C876.919 716.762 874.575 715.745 872.28 716.056C869.153 716.473 866.798 719.15 865.213 721.915C859.768 731.401 860.101 743.025 858.567 753.891C858.138 756.933 857.514 760.053 855.728 762.557C855.563 762.798 855.35 763 855.101 763.15C853.632 764.013 852.313 762.272 851.761 760.795C849.583 754.95 849.038 748.265 845.139 743.427C843.65 741.585 841.544 740.046 839.197 740.061C836.331 740.081 833.877 742.51 833.04 745.292C832.204 748.074 832.705 751.096 833.601 753.858C835.264 758.98 838.245 763.582 841.759 767.627C843.61 769.763 845.705 771.92 846.261 774.706C846.431 775.653 846.36 776.628 846.054 777.539C845.748 778.45 845.218 779.267 844.513 779.912C844.184 780.202 843.801 780.423 843.386 780.561C842.971 780.699 842.533 780.75 842.098 780.713C841.157 780.626 840.306 780.139 839.484 779.666C839.139 779.467 838.794 779.265 838.447 779.067C837.077 778.276 835.707 777.483 834.336 776.69C830.851 774.674 826.646 772.614 823.018 774.35C821.167 775.238 819.954 776.983 819.383 778.986C818.872 780.804 818.872 782.73 819.383 784.548C820.464 788.328 827.276 798.848 830.086 801.561C833.368 804.729 844.748 818.398 869.35 810.661Z"></path>
<path fill="url(#paint4_linear_1517_111459)" d="M807.991 564.269C810.38 557.747 821.414 555.891 828.181 556.125C826.453 576.388 804.93 575.964 795.146 574.469C798.369 573.785 805.626 570.727 807.991 564.269Z"></path>
<path stroke-width="0.3" stroke="url(#paint5_linear_1517_111459)" d="M826.062 558.286C822.426 562.858 812.524 571.445 798.099 574.35"></path>
<path stroke="url(#paint6_linear_1517_111459)" d="M884.56 452C885.461 474.491 876.31 526.185 832.498 553.04"></path>
<path stroke="url(#paint7_linear_1517_111459)" d="M848.376 479.993C847.361 492.812 844.331 508.098 833.368 508.988C825.319 509.641 831.044 498.68 835.463 502.474C839.881 506.269 836.907 520.275 814.941 524.372"></path>
<path stroke="url(#paint8_linear_1517_111459)" d="M897.681 504.932C896.022 515.633 889.212 538.491 875.242 544.318"></path>
<path fill="url(#paint9_linear_1517_111459)" d="M435.614 493.124H275C269.477 493.124 265 497.601 265 503.124V698.343C265 703.866 269.477 708.343 275 708.343H749C754.523 708.343 759 703.866 759 698.343V503.124C759 497.601 754.523 493.124 749 493.124H587.271C587.271 520.838 553.321 543.304 511.442 543.304C469.564 543.304 435.614 520.838 435.614 493.124Z" clip-rule="evenodd" fill-rule="evenodd"></path>
<path fill="url(#paint10_linear_1517_111459)" d="M365.325 366C359.802 366 355.325 370.477 355.325 376V496.47L435.614 496.47C435.614 524.183 469.564 546.65 511.443 546.65C553.321 546.65 587.271 524.183 587.271 496.47L668.675 496.47V376C668.675 370.477 664.198 366 658.675 366H365.325Z" clip-rule="evenodd" fill-rule="evenodd"></path>
<path fill="#A0D1FF" d="M357.556 367.115V496.47H268.346L357.556 367.115Z"></path>
<path fill="#A0D1FF" d="M666.444 367.115V496.47H755.654L666.444 367.115Z"></path>
<ellipse fill-opacity="0.15" fill="#7D7D7D" ry="15.5" rx="56.5" cy="750.5" cx="387.5"></ellipse>
<path fill="url(#paint11_linear_1517_111459)" d="M402.897 604.088H378.68V628.305H402.897V604.088Z"></path>
<path fill="#FEE0BC" d="M416.178 598.008C418.206 598.827 420.96 596.746 422.328 593.359C423.697 589.972 423.162 586.562 421.134 585.742C419.106 584.923 416.353 587.005 414.984 590.392C413.616 593.779 414.15 597.189 416.178 598.008Z"></path>
<path fill="#FEE0BC" d="M365.814 597.97C363.8 598.825 361.011 596.792 359.584 593.43C358.157 590.067 358.632 586.648 360.645 585.794C362.659 584.939 365.448 586.972 366.875 590.334C368.303 593.697 367.827 597.116 365.814 597.97Z"></path>
<path fill="url(#paint12_linear_1517_111459)" d="M391.764 614.244C406.54 614.244 418.519 602.44 418.519 587.879C418.519 573.318 406.54 561.514 391.764 561.514C376.987 561.514 365.008 573.318 365.008 587.879C365.008 602.44 376.987 614.244 391.764 614.244Z"></path>
<path fill="url(#paint13_linear_1517_111459)" d="M399.277 545.963C400.416 544.662 401.074 543.124 401.074 541.476C401.074 536.795 395.762 533 389.208 533C382.655 533 377.342 536.795 377.342 541.476C377.342 543.393 378.233 545.161 379.735 546.58C357.417 553.204 353.959 579.999 365.107 589.753C369.893 575.396 412.966 575.396 417.752 589.753C426.382 578.247 423.341 551.18 399.277 545.963Z" clip-rule="evenodd" fill-rule="evenodd"></path>
<path fill="url(#paint14_linear_1517_111459)" d="M492.614 641.491C490.919 641.491 484.824 638.943 481.823 644.28C478.822 649.617 476.517 655.715 480.349 657.87C484.181 660.025 491.308 656.842 494.309 651.506C506.2 644.6 505.322 633.011 492.614 641.491Z"></path>
<path fill="url(#paint15_linear_1517_111459)" d="M285.566 640.395C287.26 640.396 293.355 637.848 296.356 643.184C299.358 648.521 301.662 654.619 297.83 656.774C293.999 658.929 287.109 656.993 284.107 651.656C272.216 644.751 272.857 631.916 285.566 640.395Z"></path>
<path fill="url(#paint16_linear_1517_111459)" d="M402.77 617.776C402.244 618.383 401.716 618.933 401.186 619.43C399.401 620.978 396.858 622.417 393.945 623.252C387.521 624.299 381.77 619.61 379.038 616.064C378.757 616.064 377.586 616.553 375.813 617.85L375.751 617.779C373.975 618.452 372.297 619.419 370.721 620.606C361.401 624.621 344.364 638.223 330.103 670.309C328.348 665.92 322.048 661.986 314.968 657.565C308.374 653.448 301.105 648.908 296.2 643.186C289.419 647.255 285.464 650.532 284.334 651.662C295.07 668.614 318.08 697.432 328.408 697.432C338.306 697.432 345.891 693.387 350.828 687.658C349.188 707.912 347.213 729.159 345.238 734.144C342.773 740.365 386.703 740.932 412.55 738.415C425.356 738.269 434.467 737.129 433.283 734.141C431.303 729.143 429.323 707.801 427.681 687.501C432.614 693.312 440.248 697.432 450.235 697.432C460.563 697.432 483.573 668.614 494.309 651.662C493.179 650.532 489.224 647.255 482.443 643.186C477.539 648.908 470.269 653.448 463.676 657.565C456.596 661.986 450.295 665.92 448.54 670.309C434.14 637.91 416.909 624.357 407.651 620.491C406.392 619.557 405.067 618.764 403.68 618.149C403.219 617.819 402.978 617.781 402.78 617.779L402.77 617.776Z" clip-rule="evenodd" fill-rule="evenodd"></path>
<path fill="#5B7EFB" d="M406.021 619.52C406.021 619.52 404.328 617.884 402.636 617.884C393.518 626.698 383.192 620.573 378.94 616.248C378.78 616.079 377.247 616.247 375.555 617.883C390.449 630.973 402.072 624.429 406.021 619.52Z"></path>
<path fill="#FEE4C3" d="M348.559 750.41L345.901 738.844L332.453 741.54L334.475 751.625L348.559 750.41Z"></path>
<path fill="#4F538F" d="M336.606 740.269C333.941 744.435 335.646 750.005 336.832 752.269C333.468 755.761 319.414 759.159 319.414 750.417C319.414 741.84 328.003 738.716 336.606 740.269Z"></path>
<path fill="#FEE4C3" d="M425.513 750.41L428.17 738.844L441.618 741.54L439.597 751.625L425.513 750.41Z"></path>
<path fill="#4F538F" d="M437.464 740.269C440.129 744.435 438.424 750.005 437.238 752.269C440.602 755.761 454.656 759.159 454.656 750.417C454.657 741.84 446.067 738.716 437.464 740.269Z"></path>
<path fill="#D1E2FF" d="M436.346 702.267C436.346 702.267 455.053 698.795 461.002 712.252C465.346 727.987 449.548 731.941 449.548 731.941L437.19 734.364L431.808 752.57L388.101 743.992L344.359 752.57L338.97 734.349L326.743 731.95C326.743 731.95 309.243 725.351 315.303 712.27C322.967 695.723 339.931 702.29 339.931 702.29L388.08 715.945L436.346 702.267Z"></path>
<path fill="url(#paint17_linear_1517_111459)" d="M741.617 249.415L698.379 297.047C697.833 297.642 697.119 297.922 696.26 297.894C695.824 297.863 695.392 297.731 695.003 297.48C694.748 297.316 694.507 297.075 694.283 296.768L683.671 281.61C683.088 280.778 682.033 280.426 681.069 280.734L667.682 285.054C666.918 285.319 666.178 285.213 665.466 284.755C665.168 284.563 664.944 284.35 664.784 284.118C664.451 283.672 664.267 283.183 664.25 282.622C664.229 282.066 664.359 281.556 664.661 281.088L671.567 270.36C672.146 269.46 673.013 268.796 674.028 268.46L726.16 251.499L669.043 259.634C668.611 259.691 668.179 259.508 667.934 259.152L658.24 245.282C657.59 244.407 657.528 243.473 658.086 242.473C658.633 241.517 659.446 241.069 660.522 241.134L739.791 244.996C740.281 245.01 740.708 245.148 741.104 245.402C741.572 245.704 741.905 246.108 742.112 246.602C742.532 247.647 742.348 248.586 741.617 249.415Z"></path>
<path stroke-dasharray="2 2" stroke-width="3" stroke="url(#paint18_linear_1517_111459)" d="M646 273C635 267 562.5 273 538 347.5C524.056 389.9 504 423.999 446 416.999"></path>
</g>
<defs>
<linearGradient gradientUnits="userSpaceOnUse" y2="890" x2="506" y1="635" x1="506" id="paint0_linear_1517_111459">
<stop stop-color="#BDDFFF"></stop>
<stop stop-opacity="0" stop-color="white" offset="0.95892"></stop>
</linearGradient>
<linearGradient gradientUnits="userSpaceOnUse" y2="615.257" x2="229.66" y1="754.678" x1="229.66" id="paint1_linear_1517_111459">
<stop stop-color="#5FB2FF"></stop>
<stop stop-color="#DFF0FF" offset="0.7893"></stop>
</linearGradient>
<linearGradient gradientUnits="userSpaceOnUse" y2="784.347" x2="229.661" y1="630.738" x1="229.661" id="paint2_linear_1517_111459">
<stop stop-color="#DFF0FF"></stop>
<stop stop-color="#A2D2FF" offset="0.818"></stop>
</linearGradient>
<linearGradient gradientUnits="userSpaceOnUse" y2="802.968" x2="847.534" y1="720.042" x1="883.842" id="paint3_linear_1517_111459">
<stop stop-color="#C4E3FF" offset="0.365159"></stop>
<stop stop-color="#5FB2FF" offset="1"></stop>
</linearGradient>
<linearGradient gradientUnits="userSpaceOnUse" y2="550.631" x2="810.395" y1="563.994" x1="829.326" id="paint4_linear_1517_111459">
<stop stop-color="#6CB8FF"></stop>
<stop stop-color="#8FC8FF" offset="0.656831"></stop>
</linearGradient>
<linearGradient gradientUnits="userSpaceOnUse" y2="552.535" x2="818.949" y1="562.297" x1="827.361" id="paint5_linear_1517_111459">
<stop stop-color="#B2DAFF"></stop>
<stop stop-color="#88C5FF" offset="1"></stop>
</linearGradient>
<linearGradient gradientUnits="userSpaceOnUse" y2="521.715" x2="816.79" y1="454.387" x1="865.321" id="paint6_linear_1517_111459">
<stop stop-color="#B2DAFF"></stop>
<stop stop-color="#88C5FF" offset="1"></stop>
</linearGradient>
<linearGradient gradientUnits="userSpaceOnUse" y2="520.892" x2="814.112" y1="481.319" x1="830.099" id="paint7_linear_1517_111459">
<stop stop-color="#B2DAFF"></stop>
<stop stop-color="#88C5FF" offset="1"></stop>
</linearGradient>
<linearGradient gradientUnits="userSpaceOnUse" y2="509.66" x2="854.616" y1="502.675" x1="890.271" id="paint8_linear_1517_111459">
<stop stop-color="#B2DAFF"></stop>
<stop stop-color="#88C5FF" offset="1"></stop>
</linearGradient>
<linearGradient gradientUnits="userSpaceOnUse" y2="713.919" x2="412.196" y1="500.93" x1="620.725" id="paint9_linear_1517_111459">
<stop stop-color="#C9E7FF"></stop>
<stop stop-color="#DEF1FF" offset="1"></stop>
</linearGradient>
<linearGradient gradientUnits="userSpaceOnUse" y2="550.714" x2="524.626" y1="375.23" x1="581.114" id="paint10_linear_1517_111459">
<stop stop-color="#6CB8FF"></stop>
<stop stop-color="#8FC8FF" offset="0.656831"></stop>
</linearGradient>
<linearGradient gradientUnits="userSpaceOnUse" y2="628.305" x2="390.788" y1="607.218" x1="390.788" id="paint11_linear_1517_111459">
<stop stop-color="#FFCDA5"></stop>
<stop stop-color="#FFE8D1" offset="1"></stop>
</linearGradient>
<linearGradient gradientUnits="userSpaceOnUse" y2="614.244" x2="391.764" y1="561.514" x1="391.764" id="paint12_linear_1517_111459">
<stop stop-color="#FFF2DF"></stop>
<stop stop-color="#FEE0BC" offset="1"></stop>
</linearGradient>
<linearGradient gradientUnits="userSpaceOnUse" y2="591.349" x2="390.535" y1="541.476" x1="390.903" id="paint13_linear_1517_111459">
<stop stop-color="#483029"></stop>
<stop stop-color="#9F4326" offset="0.790514"></stop>
</linearGradient>
<linearGradient gradientUnits="userSpaceOnUse" y2="643.276" x2="482.388" y1="651.092" x1="496.284" id="paint14_linear_1517_111459">
<stop stop-color="#FEE4C3"></stop>
<stop stop-color="#FFD1AC" offset="1"></stop>
</linearGradient>
<linearGradient gradientUnits="userSpaceOnUse" y2="643.276" x2="297.304" y1="651.092" x1="283.407" id="paint15_linear_1517_111459">
<stop stop-color="#FEE4C3"></stop>
<stop stop-color="#FFD1AC" offset="1"></stop>
</linearGradient>
<linearGradient gradientUnits="userSpaceOnUse" y2="614.369" x2="385.944" y1="731.303" x1="373.758" id="paint16_linear_1517_111459">
<stop stop-color="#6688FF" offset="0.0403741"></stop>
<stop stop-color="#F094FF" offset="1"></stop>
</linearGradient>
<linearGradient gradientUnits="userSpaceOnUse" y2="271.407" x2="662.729" y1="238.815" x1="723.883" id="paint17_linear_1517_111459">
<stop stop-color="#6CB8FF"></stop>
<stop stop-color="#8FC8FF" offset="0.656831"></stop>
</linearGradient>
<linearGradient gradientUnits="userSpaceOnUse" y2="413.403" x2="534.98" y1="278.748" x1="590.113" id="paint18_linear_1517_111459">
<stop stop-color="#6CB8FF"></stop>
<stop stop-color="#8FC8FF" offset="0.656831"></stop>
</linearGradient>
<clipPath id="clip0_1517_111459">
<rect fill="white" height="1024" width="1024"></rect>
</clipPath>
</defs>
</svg>
