<?xml version="1.0" encoding="UTF-8"?>
<svg width="250px" height="128px" viewBox="0 0 250 128" version="1.1" xmlns="http://www.w3.org/2000/svg" xmlns:xlink="http://www.w3.org/1999/xlink">
    <!-- Generator: Sketch 63.1 (92452) - https://sketch.com -->
    <title>网络出错</title>
    <desc>Created with Sketch.</desc>
    <defs>
        <linearGradient x1="50%" y1="0%" x2="50%" y2="100%" id="linearGradient-1">
            <stop stop-color="#C1DBFE" offset="0%"></stop>
            <stop stop-color="#FFFFFF" offset="100%"></stop>
        </linearGradient>
        <linearGradient x1="50%" y1="0%" x2="14.5197296%" y2="94.4977398%" id="linearGradient-2">
            <stop stop-color="#A3BCFF" offset="0%"></stop>
            <stop stop-color="#7CAAF2" offset="100%"></stop>
        </linearGradient>
        <circle id="path-3" cx="39.5" cy="39.5" r="39.5"></circle>
        <filter x="-5.7%" y="-5.7%" width="107.6%" height="107.6%" filterUnits="objectBoundingBox" id="filter-5">
            <feOffset dx="-3" dy="-3" in="SourceAlpha" result="shadowOffsetOuter1"></feOffset>
            <feColorMatrix values="0 0 0 0 0.431372549   0 0 0 0 0.588235294   0 0 0 0 0.937254902  0 0 0 1 0" type="matrix" in="shadowOffsetOuter1"></feColorMatrix>
        </filter>
    </defs>
    <g id="2.0" stroke="none" stroke-width="1" fill="none" fill-rule="evenodd">
        <g id="空页面" transform="translate(-425.000000, -284.000000)">
            <g id="网络出错" transform="translate(423.000000, 262.000000)">
                <rect id="矩形备份-4" x="0" y="0" width="253" height="150"></rect>
                <path d="M251.283495,150 C221.862798,113.493778 174.799938,92 124.264363,92 C75.2903413,92 31.4394504,113.93473 2,148.515879 C2,148.515879 251.283495,150 251.283495,150 Z" id="椭圆形" fill="url(#linearGradient-1)"></path>
                <g id="3.通用组件/彩色版/盆栽03备份-9" transform="translate(68.000000, 92.000000)">
                    <g id="分组" transform="translate(0.968750, 0.179688)">
                        <g transform="translate(5.875000, 0.000000)" fill="#BAE637" id="Fill-1">
                            <path d="M4.6757776,18.3494157 L0.00187743506,18.3494157 L0.00187743506,2.3360632 C0.00187743506,1.06147112 1.04268506,0.0281925221 2.32660958,0.0281925221 L2.35100893,0.0281925221 C3.63493344,0.0281925221 4.6757776,1.06147112 4.6757776,2.3360632 L4.6757776,18.3494157 Z"></path>
                        </g>
                        <path d="M12.875,22.2690616 L8.1875,22.2690616 L8.1875,13.9072249 C8.1875,12.6662922 9.20534668,11.6603281 10.4609375,11.6603281 L10.6015991,11.6603281 C11.8571533,11.6603281 12.875,12.6662922 12.875,13.9072249 L12.875,22.2690616 Z" id="Fill-3" fill="#389E0D"></path>
                        <path d="M6.5625,18.3410466 L1.84375,18.3410466 L1.84375,9.2496614 C1.84375,8.00170765 2.86426439,6.990011 4.12309505,6.990011 L4.28315495,6.990011 C5.54198561,6.990011 6.5625,8.00170765 6.5625,9.2496614 L6.5625,18.3410466 Z" id="Fill-5" fill="#7CB305"></path>
                        <g transform="translate(0.000000, 17.784320)" fill="#3B68B8" id="Fill-7">
                            <path d="M13.1538246,13.8381958 L0.878524946,13.8381958 C0.393322939,13.8381958 0,13.4489514 0,12.9687806 L0,0.893400207 C0,0.413229429 0.393322939,0.0239849922 0.878524946,0.0239849922 L13.1538246,0.0239849922 C13.6390266,0.0239849922 14.0323495,0.413229429 14.0323495,0.893400207 L14.0323495,12.9687806 C14.0323495,13.4489514 13.6390266,13.8381958 13.1538246,13.8381958"></path>
                        </g>
                    </g>
                </g>
                <g id="3.通用组件/彩色版/盆栽03备份-10" transform="translate(177.000000, 79.000000)">
                    <g id="分组" transform="translate(0.787879, 0.000000)">
                        <g transform="translate(5.091667, 0.000000)" fill="#BAE637" id="Fill-1">
                            <path d="M4.05234058,15.4823195 L0.00162711039,15.4823195 L0.00162711039,1.97105333 C0.00162711039,0.895616257 0.90366039,0.0237874405 2.01639497,0.0237874405 L2.03754107,0.0237874405 C3.15027565,0.0237874405 4.05234058,0.895616257 4.05234058,1.97105333 L4.05234058,15.4823195 Z"></path>
                        </g>
                        <path d="M11.1583333,18.7895207 L7.09583333,18.7895207 L7.09583333,11.734221 C7.09583333,10.687184 7.97796712,9.83840182 9.06614583,9.83840182 L9.18805257,9.83840182 C10.2761995,9.83840182 11.1583333,10.687184 11.1583333,11.734221 L11.1583333,18.7895207 Z" id="Fill-3" fill="#389E0D"></path>
                        <path d="M5.6875,15.475258 L1.59791667,15.475258 L1.59791667,7.80440181 C1.59791667,6.75144083 2.48236247,5.89782178 3.57334905,5.89782178 L3.71206762,5.89782178 C4.8030542,5.89782178 5.6875,6.75144083 5.6875,7.80440181 L5.6875,15.475258 Z" id="Fill-5" fill="#7CB305"></path>
                        <g transform="translate(0.000000, 15.005520)" fill="#3B68B8" id="Fill-7">
                            <path d="M11.3999813,11.6759777 L0.761388286,11.6759777 C0.340879881,11.6759777 0,11.3475527 0,10.9424086 L0,0.753806425 C0,0.348662331 0.340879881,0.0202373372 0.761388286,0.0202373372 L11.3999813,0.0202373372 C11.8204897,0.0202373372 12.1613696,0.348662331 12.1613696,0.753806425 L12.1613696,10.9424086 C12.1613696,11.3475527 11.8204897,11.6759777 11.3999813,11.6759777"></path>
                        </g>
                    </g>
                </g>
                <g id="编组-5" transform="translate(178.000000, 41.500000) scale(-1, 1) translate(-178.000000, -41.500000) translate(168.000000, 32.000000)">
                    <circle id="椭圆形" fill="#98B7FB" cx="14.9502881" cy="14.8834104" r="3.5"></circle>
                    <path d="M6.16732805,17 C5.9834271,14.4337507 7.08754147,11.9624311 9.47967114,9.58604137 C11.8718008,7.20965162 15.0452438,6.47106289 19,7.37027516" id="路径-59" stroke="#98B7FB" stroke-width="4" stroke-linecap="round" stroke-linejoin="round"></path>
                    <path d="M0.000939950543,14 C-0.119179404,10.90057 1.6047891,7.593716 5.17284545,4.07943813 C8.74090181,0.565160272 13.4959279,-0.614718798 19.4379237,0.539800923" id="路径-59备份" stroke="#98B7FB" stroke-width="4" stroke-linecap="round" stroke-linejoin="round"></path>
                </g>
                <g id="椭圆形备份-2-+-椭圆形备份-3-+-椭圆形备份-4-+-椭圆形备份-5蒙版" transform="translate(91.000000, 38.000000)">
                    <mask id="mask-4" fill="white">
                        <use xlink:href="#path-3"></use>
                    </mask>
                    <g id="蒙版">
                        <use fill="black" fill-opacity="1" filter="url(#filter-5)" xlink:href="#path-3"></use>
                        <use fill="url(#linearGradient-2)" fill-rule="evenodd" xlink:href="#path-3"></use>
                    </g>
                    <circle id="椭圆形备份-2" fill="#5787EA" opacity="0.125581287" mask="url(#mask-4)" cx="25.5" cy="0.5" r="17.5"></circle>
                    <circle id="椭圆形备份-3" fill="#5787EA" opacity="0.125581287" mask="url(#mask-4)" cx="73.5" cy="52.5" r="17.5"></circle>
                    <circle id="椭圆形备份-4" fill="#5787EA" opacity="0.125581287" mask="url(#mask-4)" cx="39.5" cy="73.5" r="9.5"></circle>
                    <circle id="椭圆形备份-5" fill="#5787EA" opacity="0.125581287" mask="url(#mask-4)" cx="5.5" cy="61.5" r="17.5"></circle>
                </g>
                <path d="M153.691091,63.3820468 C156.922734,64.4212052 160.696965,63.5720993 165.013784,60.8347288 C169.013771,58.2982673 171.442984,55.7819828 172.301425,53.2858752 L172.301434,53.2858783 C172.790088,51.8650075 172.152235,50.3017864 170.809037,49.6283804 C167.796079,48.117848 163.958112,48.7008109 159.295135,51.3772688 C154.756489,53.9823639 152.209781,56.858349 151.655011,60.0052242 L151.655012,60.0052244 C151.394768,61.481431 152.264082,62.9231814 153.691091,63.3820468 Z" id="路径-58" fill="#6E93E3" transform="translate(162.096207, 56.310953) rotate(83.000000) translate(-162.096207, -56.310953) "></path>
                <path d="M189.995416,27.5668044 L189.5072,30.1073502 C189.35812,30.8831242 189.866156,31.6328667 190.64193,31.7819469 C190.666765,31.7867196 190.691723,31.7908327 190.716777,31.794282 C191.546242,31.9084792 192.31423,31.3369613 192.44304,30.5096398 L192.784153,28.3187294 L192.784153,28.3187294 L194.940195,28.7733004 C195.71544,28.9367496 196.48012,28.454094 196.666088,27.6839414 C196.844945,26.943238 196.389478,26.1977872 195.648774,26.0189304 C195.635096,26.0156275 195.621367,26.0125339 195.607594,26.009651 L193.304731,25.527626 L193.304731,25.527626 L193.756173,22.8677705 C193.889265,22.0836059 193.361467,21.3400225 192.577302,21.2069305 C192.561349,21.2042229 192.545351,21.2017843 192.529316,21.1996158 C191.705548,21.0882165 190.941343,21.6486992 190.800075,22.4678734 L190.406956,24.747469 L190.406956,24.747469 L187.987126,24.2560838 C187.206707,24.0976073 186.445572,24.6017589 186.287041,25.3821665 C186.130033,26.155074 186.629318,26.9089195 187.402226,27.0659275 C187.406721,27.0668406 187.41122,27.0677321 187.415724,27.0686019 L189.995416,27.5668044 L189.995416,27.5668044 Z" id="路径-60" fill="#6E96EF" transform="translate(191.500000, 26.500000) rotate(28.000000) translate(-191.500000, -26.500000) "></path>
            </g>
        </g>
    </g>
</svg>